<svg width="1596" height="900" viewBox="0 0 1596 900" fill="none" xmlns="http://www.w3.org/2000/svg">
<path d="M1411.18 773.878V774.378H1411.68H1532.82C1566.84 774.378 1594.82 802.363 1594.82 836.939C1594.82 871.515 1566.84 899.5 1532.82 899.5H62.508C28.4901 899.5 0.5 871.515 0.5 836.939C0.5 802.363 28.4901 774.378 62.508 774.378H183.651H184.151V773.878V117.27C184.151 78.6471 195.459 49.4744 215.804 29.955C236.152 10.4322 265.606 0.5 302.028 0.5H1293.3C1331.66 0.5 1361.11 10.4352 1380.97 29.9508C1400.83 49.465 1411.18 78.635 1411.18 117.27V773.878ZM1322.62 774.378H1323.12V773.878V142.163C1323.12 124.385 1318.67 110.959 1309.7 101.982C1300.72 93.0042 1287.3 88.5593 1269.52 88.5593H325.814C308.035 88.5593 294.61 93.0042 285.632 101.982C276.655 110.959 272.21 124.385 272.21 142.163V773.878V774.378H272.71H1322.62Z" stroke="black" stroke-opacity="0.1"/>
<path d="M573.547 609.622V609.122H573.047H524.397C496.86 609.122 476.366 602.368 462.753 588.951C449.141 575.535 442.324 555.371 442.324 528.363V251.454C442.324 224.446 449.141 204.216 462.754 190.734C476.367 177.251 496.861 170.432 524.397 170.432H923.065C950.469 170.432 970.963 177.25 984.61 190.734C998.256 204.217 1005.14 224.447 1005.14 251.454V294.055V294.555H1005.64H1054.55C1081.82 294.555 1102.32 301.373 1116 314.825C1129.68 328.276 1136.62 348.44 1136.62 375.314V654.853C1136.62 681.858 1129.68 702.089 1116 715.572C1102.32 729.056 1081.82 735.874 1054.55 735.874H655.62C628.216 735.874 607.721 729.056 594.075 715.572C580.429 702.09 573.547 681.859 573.547 654.853V609.622ZM963.296 294.555H963.796V294.055V253.821C963.796 240.057 960.023 229.526 952.934 222.436C945.845 215.347 935.511 211.771 922.537 211.771H524.924C511.688 211.771 501.352 215.346 494.326 222.438C487.302 229.53 483.663 240.062 483.663 253.821V525.997C483.663 539.755 487.302 550.223 494.328 557.249C501.354 564.275 511.69 567.783 524.924 567.783H573.047H573.547V567.283V375.314C573.547 348.307 580.429 328.143 594.074 314.726C607.72 301.308 628.215 294.555 655.62 294.555H963.296ZM615.386 426.093H614.886V426.593V652.486C614.886 666.247 618.592 676.78 625.682 683.87C632.773 690.961 643.174 694.536 656.409 694.536H1053.76C1066.86 694.536 1077.26 690.96 1084.39 683.871C1091.51 676.781 1095.28 666.249 1095.28 652.486V426.593V426.093H1094.78H615.386ZM632.768 360.324C632.768 372.953 643.503 384.229 656.673 384.229C669.841 384.229 680.577 372.953 680.577 360.324C680.577 347.695 669.841 336.42 656.673 336.42C643.503 336.42 632.768 347.695 632.768 360.324ZM707.978 360.324C707.978 372.96 718.983 384.229 732.145 384.229C745.314 384.229 756.05 372.953 756.05 360.324C756.05 347.695 745.314 336.42 732.145 336.42C718.983 336.42 707.978 347.688 707.978 360.324ZM783.451 360.324C783.451 372.96 794.456 384.229 807.618 384.229C820.787 384.229 831.523 372.953 831.523 360.324C831.523 347.695 820.787 336.42 807.618 336.42C794.456 336.42 783.451 347.688 783.451 360.324Z" stroke="black" stroke-opacity="0.3"/>
</svg>
