<svg width="1000" height="1000" viewBox="0 0 1000 1000" fill="none" xmlns="http://www.w3.org/2000/svg">
<mask id="path-1-inside-1" fill="white">
<path fill-rule="evenodd" clip-rule="evenodd" d="M500 0L250 66.9873L66.9873 250L0 500L66.9873 750L250 933.013L500 1000L750 933.013L933.013 750L1000 500L933.013 250L750 66.9873L500 0ZM734.471 93.8846L656.363 72.9556L791.65 151.064L734.471 93.8846ZM873.612 233.025L544.401 42.9555L541.704 42.2327L652.998 235H875.586L873.612 233.025ZM905.586 265H670.318L788.675 470L906.309 266.252L906.115 265.529L905.586 265ZM917.29 307.233L814.656 485H918.013V309.93L917.29 307.233ZM948.013 421.892V485H964.922L948.013 421.892ZM918.013 515H814.656L917.29 692.767L918.013 690.07V515ZM948.013 578.108V515H964.922L948.013 578.108ZM906.309 733.748L788.675 530L670.318 735H905.586L906.115 734.471L906.309 733.748ZM875.586 765H652.998L541.704 957.767L544.401 957.044L873.611 766.975L875.586 765ZM791.65 848.936L656.363 927.044L734.471 906.115L791.65 848.936ZM515 944.019L618.357 765H515V944.019ZM540.233 735H635.677L731.121 569.686L540.233 735ZM731.121 430.314L635.677 265H540.233L731.121 430.314ZM515 235H618.357L515 55.9808V235ZM343.637 72.9556L265.529 93.8846L208.35 151.064L343.637 72.9556ZM126.388 233.025L455.599 42.9555L458.296 42.2327L347.002 235H124.414L126.388 233.025ZM51.9873 421.892L35.0775 485H51.9873V421.892ZM81.9873 485V309.93L82.7101 307.233L185.344 485H81.9873ZM51.9873 515H35.0775L51.9873 578.108V515ZM81.9873 690.07V515H185.344L82.7101 692.767L81.9873 690.07ZM208.35 848.936L265.529 906.115L343.637 927.044L208.35 848.936ZM455.599 957.044L126.389 766.975L124.414 765H347.002L458.296 957.767L455.599 957.044ZM485 944.019V765H381.643L485 944.019ZM364.323 735H459.767L268.879 569.686L364.323 735ZM251.558 515L485 717.167V515H251.558ZM515 515V717.167L748.442 515H515ZM748.442 485H515V282.833L748.442 485ZM485 235V55.9807L381.643 235H485ZM329.682 265H94.4137L93.8846 265.529L93.6909 266.252L211.325 470L329.682 265ZM251.558 485H485V282.833L251.558 485ZM268.879 430.314L364.323 265H459.767L268.879 430.314ZM211.325 530L329.682 735H94.4137L93.8846 734.471L93.6909 733.748L211.325 530Z"/>
</mask>
<path d="M500 0L500.25 -0.433013L500 -0.57735L499.75 -0.433013L500 0ZM66.9873 250L66.7373 249.567L66.4873 249.711V250H66.9873ZM66.9873 750H66.4873V750.289L66.7373 750.433L66.9873 750ZM500 1000L499.75 1000.43L500 1000.58L500.25 1000.43L500 1000ZM933.013 750L933.263 750.433L933.513 750.289V750H933.013ZM933.013 250H933.513V249.711L933.263 249.567L933.013 250ZM499.75 -0.433013L66.7373 249.567L67.2373 250.433L500.25 0.433013L499.75 -0.433013ZM499.75 0.433013L932.763 250.433L933.263 249.567L500.25 -0.433013L499.75 0.433013ZM932.513 250V500H933.513V250H932.513ZM932.513 500V750H933.513V500H932.513ZM67.4873 750V500H66.4873V750H67.4873ZM67.4873 500V250H66.4873V500H67.4873ZM66.7373 750.433L499.75 1000.43L500.25 999.567L67.2373 749.567L66.7373 750.433ZM932.763 749.567L499.75 999.567L500.25 1000.43L933.263 750.433L932.763 749.567ZM66.9873 250.5H355.662V249.5H66.9873V250.5ZM355.662 250.5H500V249.5H355.662V250.5ZM500 250.5H644.338V249.5H500V250.5ZM644.338 250.5H933.013V249.5H644.338V250.5ZM66.5543 250.25L210.892 500.25L211.758 499.75L67.4203 249.75L66.5543 250.25ZM210.892 500.25L355.229 750.25L356.095 749.75L211.758 499.75L210.892 500.25ZM355.229 750.25L499.567 1000.25L500.433 999.75L356.095 749.75L355.229 750.25ZM499.567 -0.25L355.229 249.75L356.095 250.25L500.433 0.25L499.567 -0.25ZM355.229 249.75L210.892 499.75L211.758 500.25L356.095 250.25L355.229 249.75ZM210.892 499.75L66.5543 749.75L67.4203 750.25L211.758 500.25L210.892 499.75ZM211.652 500.378L500.327 250.378L499.673 249.622L210.998 499.622L211.652 500.378ZM500.433 1000.25L644.771 750.25L643.905 749.75L499.567 999.75L500.433 1000.25ZM644.771 750.25L789.108 500.25L788.242 499.75L643.905 749.75L644.771 750.25ZM789.108 500.25L933.446 250.25L932.58 249.75L788.242 499.75L789.108 500.25ZM499.567 0.25L643.905 250.25L644.771 249.75L500.433 -0.25L499.567 0.25ZM643.905 250.25L788.242 500.25L789.108 499.75L644.771 249.75L643.905 250.25ZM788.242 500.25L932.58 750.25L933.446 749.75L789.108 499.75L788.242 500.25ZM789.003 499.622L500.327 249.622L499.673 250.378L788.348 500.378L789.003 499.622ZM66.9873 750.5H355.662V749.5H66.9873V750.5ZM355.662 750.5H500V749.5H355.662V750.5ZM500 750.5H644.338V749.5H500V750.5ZM644.338 750.5H933.013V749.5H644.338V750.5ZM500.327 750.378L789.003 500.378L788.348 499.622L499.673 749.622L500.327 750.378ZM210.998 500.378L499.673 750.378L500.327 749.622L211.652 499.622L210.998 500.378ZM499.5 0V250H500.5V0H499.5ZM499.5 250V500H500.5V250H499.5ZM499.5 500V750H500.5V500H499.5ZM499.5 750V1000H500.5V750H499.5ZM0 500.5H66.9873V499.5H0V500.5ZM66.9873 500.5H211.325V499.5H66.9873V500.5ZM211.325 500.5H500V499.5H211.325V500.5ZM500 500.5H788.675V499.5H500V500.5ZM788.675 500.5H933.013V499.5H788.675V500.5ZM933.013 500.5H1000V499.5H933.013V500.5ZM500 0L500.259 -0.965926L500 -1.03528L499.741 -0.965926L500 0ZM250 66.9873L249.741 66.0214L249.482 66.0907L249.293 66.2802L250 66.9873ZM66.9873 250L66.2802 249.293L66.0907 249.482L66.0214 249.741L66.9873 250ZM0 500L-0.965926 499.741L-1.03528 500L-0.965926 500.259L0 500ZM66.9873 750L66.0214 750.259L66.0907 750.518L66.2802 750.707L66.9873 750ZM250 933.013L249.293 933.72L249.482 933.909L249.741 933.979L250 933.013ZM500 1000L499.741 1000.97L500 1001.04L500.259 1000.97L500 1000ZM750 933.013L750.259 933.979L750.518 933.909L750.707 933.72L750 933.013ZM933.013 750L933.72 750.707L933.909 750.518L933.979 750.259L933.013 750ZM1000 500L1000.97 500.259L1001.04 500L1000.97 499.741L1000 500ZM933.013 250L933.979 249.741L933.909 249.482L933.72 249.293L933.013 250ZM750 66.9873L750.707 66.2802L750.518 66.0907L750.259 66.0214L750 66.9873ZM656.363 72.9556L656.622 71.9896L655.863 73.8216L656.363 72.9556ZM734.471 93.8846L735.178 93.1775L734.989 92.988L734.73 92.9186L734.471 93.8846ZM791.65 151.064L791.15 151.93L792.357 150.357L791.65 151.064ZM544.401 42.9555L544.901 42.0895L544.787 42.0237L544.66 41.9896L544.401 42.9555ZM873.612 233.025L874.319 232.318L874.226 232.225L874.112 232.159L873.612 233.025ZM541.704 42.2327L541.962 41.2668L539.63 40.6419L540.838 42.7327L541.704 42.2327ZM652.998 235L652.132 235.5L652.42 236H652.998V235ZM875.586 235V236H878L876.293 234.293L875.586 235ZM670.318 265V264H668.586L669.452 265.5L670.318 265ZM905.586 265L906.293 264.293L906 264H905.586V265ZM788.675 470L787.809 470.5L788.675 472L789.541 470.5L788.675 470ZM906.309 266.252L907.175 266.752L907.382 266.393L907.275 265.993L906.309 266.252ZM906.115 265.529L907.081 265.27L907.012 265.011L906.823 264.822L906.115 265.529ZM814.656 485L813.79 484.5L812.924 486H814.656V485ZM917.29 307.233L918.256 306.974L917.631 304.642L916.424 306.733L917.29 307.233ZM918.013 485V486H919.013V485H918.013ZM918.013 309.93H919.013V309.799L918.979 309.672L918.013 309.93ZM948.013 485H947.013V486H948.013V485ZM948.013 421.892L948.979 421.633L947.013 421.892H948.013ZM964.922 485V486H966.226L965.888 484.741L964.922 485ZM814.656 515V514H812.924L813.79 515.5L814.656 515ZM918.013 515H919.013V514H918.013V515ZM917.29 692.767L916.424 693.267L917.631 695.358L918.256 693.026L917.29 692.767ZM918.013 690.07L918.979 690.328L919.013 690.201V690.07H918.013ZM948.013 578.108H947.013L948.979 578.367L948.013 578.108ZM948.013 515V514H947.013V515H948.013ZM964.922 515L965.888 515.259L966.226 514H964.922V515ZM788.675 530L789.541 529.5L788.675 528L787.809 529.5L788.675 530ZM906.309 733.748L907.275 734.007L907.382 733.607L907.175 733.248L906.309 733.748ZM670.318 735L669.452 734.5L668.586 736H670.318V735ZM905.586 735V736H906L906.293 735.707L905.586 735ZM906.115 734.471L906.823 735.178L907.012 734.989L907.081 734.73L906.115 734.471ZM652.998 765V764H652.42L652.132 764.5L652.998 765ZM875.586 765L876.293 765.707L878 764H875.586V765ZM541.704 957.767L540.838 957.267L539.63 959.358L541.962 958.733L541.704 957.767ZM544.401 957.044L544.66 958.01L544.787 957.976L544.901 957.91L544.401 957.044ZM873.611 766.975L874.111 767.841L874.225 767.775L874.319 767.682L873.611 766.975ZM656.363 927.044L655.863 926.178L656.621 928.01L656.363 927.044ZM791.65 848.936L792.357 849.643L791.15 848.07L791.65 848.936ZM734.471 906.115L734.73 907.081L734.989 907.012L735.178 906.823L734.471 906.115ZM618.357 765L619.223 765.5L620.089 764H618.357V765ZM515 944.019H514V947.751L515.866 944.519L515 944.019ZM515 765V764H514V765H515ZM635.677 735V736H636.255L636.543 735.5L635.677 735ZM540.233 735L539.579 734.244L537.551 736H540.233V735ZM731.121 569.686L731.987 570.186L730.467 568.93L731.121 569.686ZM635.677 265L636.543 264.5L636.255 264H635.677V265ZM731.121 430.314L730.467 431.07L731.987 429.814L731.121 430.314ZM540.233 265V264H537.551L539.579 265.756L540.233 265ZM618.357 235V236H620.089L619.223 234.5L618.357 235ZM515 235H514V236H515V235ZM515 55.9808L515.866 55.4808L514 52.2487V55.9808H515ZM265.529 93.8846L265.27 92.9186L265.012 92.988L264.822 93.1775L265.529 93.8846ZM343.637 72.9556L344.137 73.8216L343.378 71.9896L343.637 72.9556ZM208.35 151.064L207.643 150.357L208.85 151.93L208.35 151.064ZM126.388 233.025L125.888 232.159L125.774 232.225L125.681 232.318L126.388 233.025ZM455.599 42.9555L455.34 41.9896L455.213 42.0237L455.099 42.0895L455.599 42.9555ZM458.296 42.2327L459.162 42.7327L460.37 40.642L458.038 41.2668L458.296 42.2327ZM347.002 235V236H347.58L347.868 235.5L347.002 235ZM124.414 235L123.707 234.293L121.999 236H124.414V235ZM35.0775 485L34.1116 484.741L33.7743 486H35.0775V485ZM51.9873 421.892H52.9873L51.0214 421.633L51.9873 421.892ZM51.9873 485V486H52.9873V485H51.9873ZM81.9873 485H80.9873V486H81.9873V485ZM81.9873 309.93L81.0214 309.672L80.9873 309.799V309.93H81.9873ZM82.7101 307.233L83.5761 306.733L82.369 304.642L81.7442 306.974L82.7101 307.233ZM185.344 485V486H187.076L186.21 484.5L185.344 485ZM35.0775 515V514H33.7743L34.1116 515.259L35.0775 515ZM51.9873 515H52.9873V514H51.9873V515ZM51.9873 578.108L51.0214 578.367L52.9873 578.108H51.9873ZM81.9873 690.07H80.9873V690.201L81.0214 690.328L81.9873 690.07ZM81.9873 515V514H80.9873V515H81.9873ZM185.344 515L186.21 515.5L187.076 514H185.344V515ZM82.7101 692.767L81.7442 693.026L82.369 695.358L83.5762 693.267L82.7101 692.767ZM265.529 906.115L264.822 906.823L265.011 907.012L265.27 907.081L265.529 906.115ZM208.35 848.936L208.85 848.07L207.643 849.643L208.35 848.936ZM343.637 927.044L343.379 928.01L344.137 926.178L343.637 927.044ZM455.599 957.044L455.099 957.91L455.213 957.976L455.34 958.01L455.599 957.044ZM126.389 766.975L125.681 767.682L125.775 767.775L125.889 767.841L126.389 766.975ZM124.414 765V764H122L123.707 765.707L124.414 765ZM347.002 765L347.868 764.5L347.58 764H347.002V765ZM458.296 957.767L458.038 958.733L460.37 959.358L459.162 957.267L458.296 957.767ZM485 765H486V764H485V765ZM485 944.019L484.134 944.519L486 947.751V944.019H485ZM381.643 765V764H379.911L380.777 765.5L381.643 765ZM459.767 735V736H462.449L460.421 734.244L459.767 735ZM364.323 735L363.457 735.5L363.745 736H364.323V735ZM268.879 569.686L269.533 568.93L268.013 570.186L268.879 569.686ZM485 717.167L484.345 717.922L486 719.355V717.167H485ZM251.558 515V514H248.876L250.904 515.756L251.558 515ZM485 515H486V514H485V515ZM515 717.167H514V719.355L515.655 717.922L515 717.167ZM515 515V514H514V515H515ZM748.442 515L749.096 515.756L751.124 514H748.442V515ZM748.442 485V486H751.124L749.096 484.244L748.442 485ZM515 485H514V486H515V485ZM515 282.833L515.655 282.078L514 280.645V282.833H515ZM485 55.9807H486V52.2487L484.134 55.4807L485 55.9807ZM485 235V236H486V235H485ZM381.643 235L380.777 234.5L379.911 236H381.643V235ZM94.4137 265V264H93.9995L93.7066 264.293L94.4137 265ZM329.682 265L330.548 265.5L331.414 264H329.682V265ZM93.8846 265.529L93.1775 264.822L92.988 265.012L92.9186 265.27L93.8846 265.529ZM93.6909 266.252L92.725 265.993L92.6178 266.393L92.8249 266.752L93.6909 266.252ZM211.325 470L210.459 470.5L211.325 472L212.191 470.5L211.325 470ZM485 485V486H486V485H485ZM251.558 485L250.904 484.244L248.876 486H251.558V485ZM485 282.833H486V280.645L484.345 282.078L485 282.833ZM268.879 430.314L268.013 429.814L269.533 431.07L268.879 430.314ZM364.323 265V264H363.745L363.457 264.5L364.323 265ZM459.767 265L460.421 265.756L462.449 264H459.767V265ZM211.325 530L212.191 529.5L211.325 528L210.459 529.5L211.325 530ZM329.682 735V736H331.414L330.548 734.5L329.682 735ZM94.4137 735L93.7066 735.707L93.9995 736H94.4137V735ZM93.8846 734.471L92.9186 734.73L92.988 734.989L93.1775 735.178L93.8846 734.471ZM93.6909 733.748L92.8249 733.248L92.6178 733.607L92.725 734.007L93.6909 733.748ZM656.104 73.9215L734.212 94.8505L734.73 92.9186L656.622 71.9896L656.104 73.9215ZM792.15 150.198L656.863 72.0895L655.863 73.8216L791.15 151.93L792.15 150.198ZM733.764 94.5917L790.943 151.771L792.357 150.357L735.178 93.1775L733.764 94.5917ZM543.901 43.8216L873.112 233.891L874.112 232.159L544.901 42.0895L543.901 43.8216ZM541.445 43.1986L544.142 43.9215L544.66 41.9896L541.962 41.2668L541.445 43.1986ZM653.864 234.5L542.57 41.7327L540.838 42.7327L652.132 235.5L653.864 234.5ZM875.586 234H652.998V236H875.586V234ZM872.904 233.732L874.879 235.707L876.293 234.293L874.319 232.318L872.904 233.732ZM670.318 266H905.586V264H670.318V266ZM789.541 469.5L671.184 264.5L669.452 265.5L787.809 470.5L789.541 469.5ZM905.443 265.752L787.809 469.5L789.541 470.5L907.175 266.752L905.443 265.752ZM905.149 265.788L905.343 266.511L907.275 265.993L907.081 265.27L905.149 265.788ZM904.879 265.707L905.408 266.236L906.823 264.822L906.293 264.293L904.879 265.707ZM815.522 485.5L918.156 307.733L916.424 306.733L813.79 484.5L815.522 485.5ZM918.013 484H814.656V486H918.013V484ZM917.013 309.93V485H919.013V309.93H917.013ZM916.324 307.492L917.047 310.189L918.979 309.672L918.256 306.974L916.324 307.492ZM949.013 485V421.892H947.013V485H949.013ZM964.922 484H948.013V486H964.922V484ZM947.047 422.151L963.957 485.259L965.888 484.741L948.979 421.633L947.047 422.151ZM814.656 516H918.013V514H814.656V516ZM918.156 692.267L815.522 514.5L813.79 515.5L916.424 693.267L918.156 692.267ZM917.047 689.811L916.324 692.508L918.256 693.026L918.979 690.328L917.047 689.811ZM917.013 515V690.07H919.013V515H917.013ZM949.013 578.108V515H947.013V578.108H949.013ZM948.013 516H964.922V514H948.013V516ZM963.957 514.741L947.047 577.849L948.979 578.367L965.888 515.259L963.957 514.741ZM787.809 530.5L905.443 734.248L907.175 733.248L789.541 529.5L787.809 530.5ZM671.184 735.5L789.541 530.5L787.809 529.5L669.452 734.5L671.184 735.5ZM905.586 734H670.318V736H905.586V734ZM905.408 733.764L904.879 734.293L906.293 735.707L906.823 735.178L905.408 733.764ZM905.343 733.489L905.149 734.212L907.081 734.73L907.275 734.007L905.343 733.489ZM652.998 766H875.586V764H652.998V766ZM542.57 958.267L653.864 765.5L652.132 764.5L540.838 957.267L542.57 958.267ZM544.143 956.078L541.445 956.801L541.962 958.733L544.66 958.01L544.143 956.078ZM873.111 766.109L543.901 956.178L544.901 957.91L874.111 767.841L873.111 766.109ZM874.879 764.293L872.904 766.268L874.319 767.682L876.293 765.707L874.879 764.293ZM656.863 927.91L792.15 849.802L791.15 848.07L655.863 926.178L656.863 927.91ZM734.212 905.149L656.104 926.078L656.621 928.01L734.73 907.081L734.212 905.149ZM790.943 848.229L733.764 905.408L735.178 906.823L792.357 849.643L790.943 848.229ZM617.491 764.5L514.134 943.519L515.866 944.519L619.223 765.5L617.491 764.5ZM515 766H618.357V764H515V766ZM516 944.019V765H514V944.019H516ZM635.677 734H540.233V736H635.677V734ZM730.255 569.186L634.811 734.5L636.543 735.5L731.987 570.186L730.255 569.186ZM540.888 735.756L731.776 570.442L730.467 568.93L539.579 734.244L540.888 735.756ZM634.811 265.5L730.255 430.814L731.987 429.814L636.543 264.5L634.811 265.5ZM540.233 266H635.677V264H540.233V266ZM731.776 429.558L540.888 264.244L539.579 265.756L730.467 431.07L731.776 429.558ZM618.357 234H515V236H618.357V234ZM514.134 56.4808L617.491 235.5L619.223 234.5L515.866 55.4808L514.134 56.4808ZM516 235V55.9808H514V235H516ZM265.788 94.8505L343.896 73.9215L343.378 71.9896L265.27 92.9186L265.788 94.8505ZM209.057 151.771L266.236 94.5917L264.822 93.1775L207.643 150.357L209.057 151.771ZM343.137 72.0895L207.85 150.198L208.85 151.93L344.137 73.8216L343.137 72.0895ZM126.888 233.891L456.099 43.8216L455.099 42.0895L125.888 232.159L126.888 233.891ZM455.858 43.9215L458.555 43.1987L458.038 41.2668L455.34 41.9896L455.858 43.9215ZM457.43 41.7327L346.136 234.5L347.868 235.5L459.162 42.7327L457.43 41.7327ZM347.002 234H124.414V236H347.002V234ZM125.121 235.707L127.096 233.732L125.681 232.318L123.707 234.293L125.121 235.707ZM36.0434 485.259L52.9532 422.151L51.0214 421.633L34.1116 484.741L36.0434 485.259ZM51.9873 484H35.0775V486H51.9873V484ZM50.9873 421.892V485H52.9873V421.892H50.9873ZM82.9873 485V309.93H80.9873V485H82.9873ZM82.9532 310.189L83.676 307.492L81.7442 306.974L81.0214 309.672L82.9532 310.189ZM81.8441 307.733L184.478 485.5L186.21 484.5L83.5761 306.733L81.8441 307.733ZM185.344 484H81.9873V486H185.344V484ZM35.0775 516H51.9873V514H35.0775V516ZM52.9532 577.849L36.0434 514.741L34.1116 515.259L51.0214 578.367L52.9532 577.849ZM50.9873 515V578.108H52.9873V515H50.9873ZM82.9873 690.07V515H80.9873V690.07H82.9873ZM81.9873 516H185.344V514H81.9873V516ZM184.478 514.5L81.8441 692.267L83.5762 693.267L186.21 515.5L184.478 514.5ZM83.6761 692.508L82.9532 689.811L81.0214 690.328L81.7442 693.026L83.6761 692.508ZM266.236 905.408L209.057 848.229L207.643 849.643L264.822 906.823L266.236 905.408ZM343.896 926.078L265.788 905.149L265.27 907.081L343.379 928.01L343.896 926.078ZM207.85 849.802L343.137 927.91L344.137 926.178L208.85 848.07L207.85 849.802ZM456.099 956.178L126.889 766.109L125.889 767.841L455.099 957.91L456.099 956.178ZM127.096 766.268L125.121 764.293L123.707 765.707L125.681 767.682L127.096 766.268ZM124.414 766H347.002V764H124.414V766ZM346.136 765.5L457.43 958.267L459.162 957.267L347.868 764.5L346.136 765.5ZM458.555 956.801L455.858 956.078L455.34 958.01L458.038 958.733L458.555 956.801ZM484 765V944.019H486V765H484ZM381.643 766H485V764H381.643V766ZM485.866 943.519L382.509 764.5L380.777 765.5L484.134 944.519L485.866 943.519ZM459.767 734H364.323V736H459.767V734ZM268.224 570.442L459.112 735.756L460.421 734.244L269.533 568.93L268.224 570.442ZM365.189 734.5L269.745 569.186L268.013 570.186L363.457 735.5L365.189 734.5ZM485.655 716.411L252.213 514.244L250.904 515.756L484.345 717.922L485.655 716.411ZM484 515V717.167H486V515H484ZM251.558 516H485V514H251.558V516ZM516 717.167V515H514V717.167H516ZM747.787 514.244L514.345 716.411L515.655 717.922L749.096 515.756L747.787 514.244ZM515 516H748.442V514H515V516ZM748.442 484H515V486H748.442V484ZM516 485V282.833H514V485H516ZM514.345 283.589L747.787 485.756L749.096 484.244L515.655 282.078L514.345 283.589ZM484 55.9807V235H486V55.9807H484ZM382.509 235.5L485.866 56.4807L484.134 55.4807L380.777 234.5L382.509 235.5ZM485 234H381.643V236H485V234ZM94.4137 266H329.682V264H94.4137V266ZM94.5917 266.236L95.1208 265.707L93.7066 264.293L93.1775 264.822L94.5917 266.236ZM94.6568 266.511L94.8505 265.788L92.9186 265.27L92.725 265.993L94.6568 266.511ZM212.191 469.5L94.5569 265.752L92.8249 266.752L210.459 470.5L212.191 469.5ZM328.816 264.5L210.459 469.5L212.191 470.5L330.548 265.5L328.816 264.5ZM485 484H251.558V486H485V484ZM484 282.833V485H486V282.833H484ZM252.213 485.756L485.655 283.589L484.345 282.078L250.904 484.244L252.213 485.756ZM269.745 430.814L365.189 265.5L363.457 264.5L268.013 429.814L269.745 430.814ZM364.323 266H459.767V264H364.323V266ZM459.112 264.244L268.224 429.558L269.533 431.07L460.421 265.756L459.112 264.244ZM210.459 530.5L328.816 735.5L330.548 734.5L212.191 529.5L210.459 530.5ZM329.682 734H94.4137V736H329.682V734ZM95.1208 734.293L94.5917 733.764L93.1775 735.178L93.7066 735.707L95.1208 734.293ZM94.8505 734.212L94.6568 733.489L92.725 734.007L92.9186 734.73L94.8505 734.212ZM94.5569 734.248L212.191 530.5L210.459 529.5L92.8249 733.248L94.5569 734.248ZM499.741 0.965926L749.741 67.9532L750.259 66.0214L500.259 -0.965926L499.741 0.965926ZM250.259 67.9532L500.259 0.965926L499.741 -0.965926L249.741 66.0214L250.259 67.9532ZM67.6944 250.707L250.707 67.6944L249.293 66.2802L66.2802 249.293L67.6944 250.707ZM0.965926 500.259L67.9532 250.259L66.0214 249.741L-0.965926 499.741L0.965926 500.259ZM67.9532 749.741L0.965926 499.741L-0.965926 500.259L66.0214 750.259L67.9532 749.741ZM250.707 932.306L67.6944 749.293L66.2802 750.707L249.293 933.72L250.707 932.306ZM500.259 999.034L250.259 932.047L249.741 933.979L499.741 1000.97L500.259 999.034ZM749.741 932.047L499.741 999.034L500.259 1000.97L750.259 933.979L749.741 932.047ZM932.306 749.293L749.293 932.306L750.707 933.72L933.72 750.707L932.306 749.293ZM999.034 499.741L932.047 749.741L933.979 750.259L1000.97 500.259L999.034 499.741ZM932.047 250.259L999.034 500.259L1000.97 499.741L933.979 249.741L932.047 250.259ZM749.293 67.6944L932.306 250.707L933.72 249.293L750.707 66.2802L749.293 67.6944Z" fill="black" fill-opacity="0.5" mask="url(#path-1-inside-1)"/>
</svg>
